<svg width="512" height="512" viewBox="0 0 512 512" fill="none" xmlns="http://www.w3.org/2000/svg">
<defs>
    <filter id="redGlowLight" x="-50%" y="-50%" width="200%" height="200%">
        <feGaussianBlur in="SourceGraphic" stdDeviation="8" result="blur" />
        <feColorMatrix in="blur" type="matrix" values="1 0 0 0 0  0 0 0 0 0  0 0 0 0 0  0 0 0 18 -7" result="goo" />
        <feMerge>
            <feMergeNode in="blur" />
            <feMergeNode in="SourceGraphic" />
        </feMerge>
    </filter>

    <linearGradient id="bgGradientLight" x1="0" y1="0" x2="512" y2="512" gradientUnits="userSpaceOnUse">
        <stop offset="0%" stop-color="#f9fafb" /> <stop offset="100%" stop-color="#f3f4f6" /> </linearGradient>
</defs>

<rect x="0" y="0" width="512" height="512" rx="100" fill="url(#bgGradientLight)"/>

<g opacity="0.6" stroke-width="3" stroke-linecap="round" fill="none">
    <path d="M50 100 H150 L180 130 V250" stroke="#cbd5e1"/>
    <path d="M460 50 V150 L400 210 H300" stroke="#cbd5e1"/>
    <path d="M100 450 H200 L230 420 V350" stroke="#94a3b8" opacity="0.7"/>
    <path d="M450 450 V350 L400 300 H320" stroke="#cbd5e1"/>
    <path d="M480 250 H400 L370 280" stroke="#94a3b8" opacity="0.5"/>
</g>

<g transform="translate(156, 156)"> <path d="M60 180 C20 180 0 140 0 100 C0 45 45 0 100 0 C155 0 200 45 200 100 C200 140 180 180 140 180" fill="#1e293b" />
    <circle cx="10" cy="170" r="28" fill="#1e293b"/>
    <circle cx="190" cy="170" r="28" fill="#1e293b"/>
    
    <g filter="url(#redGlowLight)">
        <ellipse cx="65" cy="85" rx="22" ry="15" fill="#ef4444"/> <ellipse cx="135" cy="85" rx="22" ry="15" fill="#ef4444"/>
    </g>
</g>
</svg>